Genre:Drama
Language:English 
http://www.imdb.com/title/tt1422191/
Source:DVD

General
Complete name :Held Hostage 2009.DvDRip.XviD.Ac3.Feel-Free
Format : AVI
Format/Info : Audio Video Interleave
File size : 725 MiB
Duration : 1h 25mn
Video #0
Codec ID : XVID
Codec ID/Hint : XviD
Duration : 1h 25mn
Bit rate : 727 Kbps
Width : 720 pixels
Height : 384 pixels
Display aspect ratio : 1.875
Frame rate : 25.000 fps
Resolution : 24 bits
Colorimetry : 4:2:0
Scan type : Progressive
Bits/(Pixel*Frame) : 0.105
Stream size : 445 MiB (61%)
Writing library : XviD 1.3.0.dev55
Audio #1
ID : 1
Format : AC-3
Format/Info : Audio Coding 3
Codec ID : 2000
Duration : 1h 25mn
Bit rate mode : Constant
Bit rate : 448 Kbps
Channel(s) : 6 channels
Channel positions : Front: L C R, Surround: L R, LFE
Sampling rate : 48.0 KHz
Stream size : 274 MiB (38%)
Alignment : Split accross interleaves
Interleave, duration : 40 ms (1.00 video frame)
Interleave, preload duration : 500 ms

Plot:
Michelle a single mother is kidnapped by three masked men and held hostage until she is forced to rob a bank which is the only option she has to saving her only child's life while they are both wired to explode.